<svg xmlns="http://www.w3.org/2000/svg" width="131" height="120" viewBox="0 0 131 120" fill="none"><path d="M85.5909 39.338L106.072 39.338L106.072 26.4194L129.075 47.9503L106.072 69.4813L106.072 56.5627L77.9917 56.5627" stroke="#31AD6C" stroke-width="3" stroke-linecap="round" stroke-linejoin="round"></path><path d="M59.8381 78.5159L25.0029 78.5159L25.0029 91.4345L2.00001 69.9035L25.0029 48.3726L25.0029 61.2911L59.8381 61.2911" fill="#60F47B"></path><path d="M59.8381 78.5159L25.0029 78.5159L25.0029 91.4345L2.00001 69.9035L25.0029 48.3726L25.0029 61.2911L59.8381 61.2911" stroke="#31AD6C" stroke-width="3" stroke-linecap="round" stroke-linejoin="round"></path><path d="M52.6611 50.9056C64.3191 50.9056 73.7699 41.4549 73.7699 29.7968C73.7699 18.1387 64.3191 8.68799 52.6611 8.68799C41.003 8.68799 31.5522 18.1387 31.5522 29.7968C31.5522 41.4549 41.003 50.9056 52.6611 50.9056Z" fill="#60F47B" stroke="#31AD6C" stroke-width="3" stroke-linecap="round" stroke-linejoin="round"></path><path d="M46.9978 35.2027C46.9978 38.1794 49.5248 40.6086 52.6611 40.6086C55.7975 40.6086 58.3245 38.1965 58.3245 35.2027C58.3245 32.2089 56.0125 30.8404 52.6611 29.7968C49.6861 28.873 46.9978 27.3847 46.9978 24.3909C46.9978 21.3971 49.5248 18.985 52.6611 18.985C55.7975 18.985 58.3245 21.3971 58.3245 24.3909" stroke="#31AD6C" stroke-width="3" stroke-linecap="round" stroke-linejoin="round"></path><path d="M52.1462 15.896V18.9851" stroke="#31AD6C" stroke-width="3" stroke-linecap="round" stroke-linejoin="round"></path><path d="M52.1462 40.6086V43.6977" stroke="#31AD6C" stroke-width="3" stroke-linecap="round" stroke-linejoin="round"></path><path d="M85.1687 96.2562C93.3294 96.2562 99.9449 89.6407 99.9449 81.48C99.9449 73.3194 93.3294 66.7039 85.1687 66.7039C77.0081 66.7039 70.3926 73.3194 70.3926 81.48C70.3926 89.6407 77.0081 96.2562 85.1687 96.2562Z" fill="#60F47B" stroke="#31AD6C" stroke-width="3" stroke-linecap="round" stroke-linejoin="round"></path><path d="M82.486 26.385C88.1398 23.1207 90.077 15.8911 86.8127 10.2373C83.5485 4.58342 76.3189 2.64626 70.665 5.91052" stroke="#31AD6C" stroke-width="3" stroke-linecap="round" stroke-linejoin="round"></path><path d="M52.2391 118.209C60.3997 118.209 67.0152 111.594 67.0152 103.433C67.0152 95.2725 60.3997 88.657 52.2391 88.657C44.0784 88.657 37.4629 95.2725 37.4629 103.433C37.4629 111.594 44.0784 118.209 52.2391 118.209Z" fill="#60F47B" stroke="#31AD6C" stroke-width="3" stroke-linecap="round" stroke-linejoin="round"></path><path d="M59.8381 61.361V78.4447" stroke="#31AD6C" stroke-width="3" stroke-linecap="round"></path></svg>