<svg xmlns="http://www.w3.org/2000/svg" width="134" height="134" viewBox="0 0 134 134" fill="none"><g clip-path="url(#clip0_609_5105)"><path d="M18.0529 21.3467H115.985C119.781 21.3467 122.852 24.4175 122.852 28.2142V45.2433H11.1667V28.2142C11.1667 24.4175 14.2376 21.3467 18.0342 21.3467H18.0529Z" fill="#60F47B"></path><path d="M48.4825 112.653H114.682C119.186 112.653 122.852 109.005 122.852 104.482V27.358C122.852 24.0452 120.172 21.3652 116.86 21.3652H17.1786C13.8658 21.3652 11.1858 24.0452 11.1858 27.358V104.482C11.1858 108.986 14.8336 112.653 19.3561 112.653H48.5011H48.4825Z" stroke="#31AD6C" stroke-width="3" stroke-linecap="round" stroke-linejoin="round"></path><path d="M26.186 33.4065C26.186 32.8295 25.7207 32.3643 25.1438 32.3643C24.5668 32.3643 24.1016 32.8295 24.1016 33.4065C24.1016 33.9834 24.5668 34.4487 25.1438 34.4487C25.7207 34.4487 26.186 33.9834 26.186 33.4065Z" stroke="#31AD6C" stroke-width="3" stroke-linecap="round" stroke-linejoin="round"></path><path d="M38.1528 33.4065C38.1528 32.8295 37.6875 32.3643 37.1106 32.3643C36.5336 32.3643 36.0684 32.8295 36.0684 33.4065C36.0684 33.9834 36.5336 34.4487 37.1106 34.4487C37.6875 34.4487 38.1528 33.9834 38.1528 33.4065Z" stroke="#31AD6C" stroke-width="3" stroke-linecap="round" stroke-linejoin="round"></path><path d="M50.1384 33.4065C50.1384 32.8295 49.6731 32.3643 49.0962 32.3643C48.5192 32.3643 48.054 32.8295 48.054 33.4065C48.054 33.9834 48.5192 34.4487 49.0962 34.4487C49.6731 34.4487 50.1384 33.9834 50.1384 33.4065Z" stroke="#31AD6C" stroke-width="3" stroke-linecap="round" stroke-linejoin="round"></path><path d="M11.1667 45.2432H122.833" stroke="#31AD6C" stroke-width="3" stroke-linecap="round" stroke-linejoin="round"></path><path d="M47.4211 78.8369H86.5975" stroke="#31AD6C" stroke-width="3" stroke-linecap="round" stroke-linejoin="round"></path><path d="M67.0002 59.1465V78.8743" stroke="#31AD6C" stroke-width="3" stroke-linecap="round" stroke-linejoin="round"></path><path d="M67.0188 98.1739V78.8369" stroke="#31AD6C" stroke-width="3" stroke-linecap="round" stroke-linejoin="round"></path><path d="M41.261 78.8926C41.261 64.6737 52.7999 53.1162 67.0188 53.1162C81.2376 53.1162 92.7765 64.7109 92.7765 78.9298V78.8926C92.7765 93.1115 81.2376 104.65 67.0188 104.65C52.7999 104.65 41.261 93.1115 41.261 78.8926Z" stroke="#31AD6C" stroke-width="3" stroke-linecap="round" stroke-linejoin="round"></path><path d="M60.5794 60.9141C57.5272 64.4688 54.5122 70.2568 54.5122 79.2274" stroke="#31AD6C" stroke-width="3" stroke-linecap="round" stroke-linejoin="round"></path><path d="M73.3467 60.8027C76.4361 64.3575 79.507 70.1641 79.507 79.2277" stroke="#31AD6C" stroke-width="3" stroke-linecap="round" stroke-linejoin="round"></path><path d="M74.519 96.2194C77.1804 92.6089 79.5068 87.1744 79.5068 79.2461" stroke="#31AD6C" stroke-width="3" stroke-linecap="round" stroke-linejoin="round"></path><path d="M59.3511 96.0146C56.7641 92.4041 54.5122 87.0255 54.5122 79.2646" stroke="#31AD6C" stroke-width="3" stroke-linecap="round" stroke-linejoin="round"></path><path d="M67.0002 68.8426C59.6116 68.8426 55.3683 66.6092 53.0791 64.7295" stroke="#31AD6C" stroke-width="3" stroke-linecap="round" stroke-linejoin="round"></path><path d="M80.9213 64.7295C78.6507 66.6278 74.3888 68.8426 67.0188 68.8426" stroke="#31AD6C" stroke-width="3" stroke-linecap="round" stroke-linejoin="round"></path><path d="M80.9213 92.9812C78.6321 91.0829 74.3888 88.8682 67.0188 88.8682" stroke="#31AD6C" stroke-width="3" stroke-linecap="round" stroke-linejoin="round"></path><path d="M52.9487 93.1115C55.1821 91.1946 59.4626 88.8682 67.0187 88.8682" stroke="#31AD6C" stroke-width="3" stroke-linecap="round" stroke-linejoin="round"></path></g><defs><clipPath id="clip0_609_5105"><rect width="134" height="134" fill="white"></rect></clipPath></defs></svg>