<svg xmlns="http://www.w3.org/2000/svg" width="134" height="134" viewBox="0 0 134 134" fill="none"><g clip-path="url(#clip0_609_5153)"><path d="M96.5173 36.0312C88.2539 36.0312 80.4745 39.251 74.6306 45.0949L67 52.7254L59.3695 45.0949C53.5256 39.251 45.7461 36.0312 37.4828 36.0312C20.4164 36.0312 6.51392 49.9151 6.51392 67.0001C6.51392 84.0851 20.3978 97.969 37.4828 97.969C45.7461 97.969 53.5256 94.7493 59.3695 88.9054L67 81.2749L74.6306 88.9054C80.4745 94.7493 88.2539 97.969 96.5173 97.969C113.584 97.969 127.486 84.0851 127.486 67.0001C127.486 49.9151 113.602 36.0312 96.5173 36.0312Z" stroke="#31AD6C" stroke-width="3" stroke-linecap="round" stroke-linejoin="round"></path><path d="M37.4642 87.8815C25.9253 87.8815 16.5825 78.5387 16.5825 66.9998C16.5825 55.4609 25.9253 46.1182 37.4642 46.1182C43.2336 46.1182 48.4447 48.4632 52.2228 52.2412L66.9814 66.9998L52.2228 81.7584C48.4447 85.5365 43.2336 87.8815 37.4642 87.8815Z" fill="#60F47B" stroke="#31AD6C" stroke-width="3" stroke-linecap="round" stroke-linejoin="round"></path><path d="M96.5359 87.8815C90.7665 87.8815 85.5553 85.5365 81.7773 81.7584L67.0187 66.9998L81.7773 52.2412C85.5553 48.4632 90.7665 46.1182 96.5359 46.1182C108.075 46.1182 117.418 55.4609 117.418 66.9998C117.418 78.5387 108.075 87.8815 96.5359 87.8815Z" fill="#60F47B" stroke="#31AD6C" stroke-width="3" stroke-linecap="round" stroke-linejoin="round"></path></g><defs><clipPath id="clip0_609_5153"><rect width="134" height="134" fill="white"></rect></clipPath></defs></svg>