<svg xmlns="http://www.w3.org/2000/svg" width="134" height="134" viewBox="0 0 134 134" fill="none"><g clip-path="url(#clip0_609_5085)"><path d="M18.0341 21.3467H115.966C119.762 21.3467 122.833 24.4175 122.833 28.2142V45.2433H11.1666V28.2142C11.1666 24.4175 14.2375 21.3467 18.0341 21.3467Z" fill="#60F47B"></path><path d="M48.4633 112.654H114.663C119.167 112.654 122.833 109.006 122.833 104.483V27.359C122.833 24.0462 120.153 21.3662 116.841 21.3662H17.1594C13.8466 21.3662 11.1666 24.0462 11.1666 27.359V104.483C11.1666 108.987 14.8144 112.654 19.3369 112.654H48.4819H48.4633Z" stroke="#31AD6C" stroke-width="3" stroke-linecap="round" stroke-linejoin="round"></path><path d="M26.1672 33.4075C26.1672 32.8305 25.7019 32.3652 25.125 32.3652C24.548 32.3652 24.0828 32.8305 24.0828 33.4075C24.0828 33.9844 24.548 34.4497 25.125 34.4497C25.7019 34.4497 26.1672 33.9844 26.1672 33.4075Z" stroke="#31AD6C" stroke-width="3" stroke-linecap="round" stroke-linejoin="round"></path><path d="M38.1527 33.4075C38.1527 32.8305 37.6874 32.3652 37.1105 32.3652C36.5335 32.3652 36.0682 32.8305 36.0682 33.4075C36.0682 33.9844 36.5335 34.4497 37.1105 34.4497C37.6874 34.4497 38.1527 33.9844 38.1527 33.4075Z" stroke="#31AD6C" stroke-width="3" stroke-linecap="round" stroke-linejoin="round"></path><path d="M50.1197 33.4075C50.1197 32.8305 49.6544 32.3652 49.0775 32.3652C48.5006 32.3652 48.0353 32.8305 48.0353 33.4075C48.0353 33.9844 48.5006 34.4497 49.0775 34.4497C49.6544 34.4497 50.1197 33.9844 50.1197 33.4075Z" stroke="#31AD6C" stroke-width="3" stroke-linecap="round" stroke-linejoin="round"></path><path d="M11.1666 45.2441H122.833" stroke="#31AD6C" stroke-width="3" stroke-linecap="round" stroke-linejoin="round"></path><path d="M89.6124 92.4232L102.901 79.1535L89.6124 65.8838" stroke="#31AD6C" stroke-width="3" stroke-linecap="round" stroke-linejoin="round"></path><path d="M44.3688 92.4232L31.0991 79.1535L44.3688 65.8838" stroke="#31AD6C" stroke-width="3" stroke-linecap="round" stroke-linejoin="round"></path><path d="M76.7708 59.1094L57.2291 98.8069" stroke="#31AD6C" stroke-width="3" stroke-linecap="round" stroke-linejoin="round"></path></g><defs><clipPath id="clip0_609_5085"><rect width="134" height="134" fill="white"></rect></clipPath></defs></svg>