<svg xmlns="http://www.w3.org/2000/svg" width="134" height="134" viewBox="0 0 134 134" fill="none"><g clip-path="url(#clip0_609_5162)"><path d="M107.219 12.4697C111.109 12.4697 114.254 15.615 114.254 19.5047V75.5986C114.254 79.4883 111.109 82.6336 107.219 82.6336H26.7816C22.8919 82.6336 19.7466 79.4883 19.7466 75.5986V19.5047C19.7466 15.615 22.8919 12.4697 26.7816 12.4697C29.4616 12.4697 109.675 12.4697 107.219 12.4697Z" stroke="#31AD6C" stroke-width="3" stroke-linecap="round" stroke-linejoin="round"></path><path d="M42.8988 82.6338L38.5996 93.5027H67.0002H95.4007L91.1016 82.6338" stroke="#31AD6C" stroke-width="3" stroke-linecap="round" stroke-linejoin="round"></path><path d="M106.735 101.729L114.961 116.562C116.189 118.795 114.589 121.531 112.039 121.531H21.9612C19.4115 121.531 17.7923 118.795 19.0392 116.562L27.2654 101.729H106.753H106.735Z" fill="#60F47B" stroke="#31AD6C" stroke-width="3" stroke-linecap="round" stroke-linejoin="round"></path><path d="M60.1326 69.1972V37.9678H73.1231V69.1972" fill="#60F47B"></path><path d="M60.1326 69.1972V37.9678H73.1231V69.1972" stroke="#31AD6C" stroke-width="3" stroke-linecap="round" stroke-linejoin="round"></path><path d="M31.6204 69.0291V52.3535H44.6109V69.3641" fill="#60F47B"></path><path d="M31.6204 69.0291V52.3535H44.6109V69.3641" stroke="#31AD6C" stroke-width="3" stroke-linecap="round" stroke-linejoin="round"></path><path d="M88.6633 69.3641V52.3535H101.654V69.0291" fill="#60F47B"></path><path d="M88.6633 69.3641V52.3535H101.654V69.0291" stroke="#31AD6C" stroke-width="3" stroke-linecap="round" stroke-linejoin="round"></path><path d="M38.1156 44.891C40.4592 44.891 42.359 42.9912 42.359 40.6476C42.359 38.3041 40.4592 36.4043 38.1156 36.4043C35.7721 36.4043 33.8723 38.3041 33.8723 40.6476C33.8723 42.9912 35.7721 44.891 38.1156 44.891Z" stroke="#31AD6C" stroke-width="3" stroke-linecap="round" stroke-linejoin="round"></path><path d="M95.1586 44.891C97.5022 44.891 99.402 42.9912 99.402 40.6476C99.402 38.3041 97.5022 36.4043 95.1586 36.4043C92.8151 36.4043 90.9153 38.3041 90.9153 40.6476C90.9153 42.9912 92.8151 44.891 95.1586 44.891Z" stroke="#31AD6C" stroke-width="3" stroke-linecap="round" stroke-linejoin="round"></path><path d="M66.6279 30.4857C68.9714 30.4857 70.8712 28.5859 70.8712 26.2424C70.8712 23.8988 68.9714 21.999 66.6279 21.999C64.2843 21.999 62.3845 23.8988 62.3845 26.2424C62.3845 28.5859 64.2843 30.4857 66.6279 30.4857Z" stroke="#31AD6C" stroke-width="3" stroke-linecap="round" stroke-linejoin="round"></path><path d="M70.2942 28.3828L91.4922 38.5259" stroke="#31AD6C" stroke-width="3" stroke-linecap="round" stroke-linejoin="round"></path><path d="M41.7634 38.5259L62.9801 28.3828" stroke="#31AD6C" stroke-width="3" stroke-linecap="round" stroke-linejoin="round"></path><path d="M26.1672 69.3643H107.833" stroke="#31AD6C" stroke-width="3" stroke-linecap="round" stroke-linejoin="round"></path></g><defs><clipPath id="clip0_609_5162"><rect width="134" height="134" fill="white"></rect></clipPath></defs></svg>