<svg xmlns="http://www.w3.org/2000/svg" width="134" height="134" viewBox="0 0 134 134" fill="none"><g clip-path="url(#clip0_609_5134)"><path d="M80.6047 12.4688H107.219C111.108 12.4688 114.254 15.614 114.254 19.5038V75.5976C114.254 79.4874 111.108 82.6326 107.219 82.6326H26.7813C22.8916 82.6326 19.7463 79.4874 19.7463 75.5976V19.5038C19.7463 15.614 22.8916 12.4688 26.7813 12.4688H53.3952" stroke="#31AD6C" stroke-width="3" stroke-linecap="round" stroke-linejoin="round"></path><path d="M42.8985 82.6328L38.5994 93.5017H66.9999H95.4005L91.1013 82.6328" stroke="#31AD6C" stroke-width="3" stroke-linecap="round" stroke-linejoin="round"></path><path d="M106.735 101.728L114.961 116.561C116.189 118.794 114.589 121.53 112.039 121.53H21.9611C19.4114 121.53 17.7922 118.794 19.0391 116.561L27.2652 101.728H106.753H106.735Z" fill="#60F47B" stroke="#31AD6C" stroke-width="3" stroke-linecap="round" stroke-linejoin="round"></path><path d="M56.9128 43.8661C49.4497 51.3292 56.1869 61.5281 56.1869 61.5281L57.0058 60.7092C59.6486 58.0664 63.2591 56.5775 67 56.5775C70.7408 56.5775 74.3514 58.0664 76.9941 60.7092L77.813 61.5281C77.813 61.5281 84.5502 51.3478 77.0872 43.8661L73.9605 53.6556L75.133 50.6034C75.8961 48.5747 76.4916 46.5833 76.9197 44.6478C81.6655 23.245 67 8.78418 67 8.78418C67 8.78418 49.58 25.9622 58.8669 50.6034L60.0394 53.6556L56.9128 43.8661Z" fill="#60F47B"></path><path d="M60.0394 53.6556L58.8669 50.6033C49.5799 25.9622 66.9999 8.78418 66.9999 8.78418C66.9999 8.78418 81.6655 23.245 76.9196 44.6478C76.4916 46.5833 75.9146 48.5561 75.133 50.6033L73.9605 53.6556" stroke="#31AD6C" stroke-width="3" stroke-linecap="round" stroke-linejoin="round"></path><path d="M56.9128 43.8662C49.4497 51.3293 56.1869 61.5282 56.1869 61.5282L57.0058 60.7093C59.6486 58.0665 63.2591 56.5776 67 56.5776C70.7408 56.5776 74.3514 58.0665 76.9941 60.7093L77.813 61.5282C77.813 61.5282 84.5502 51.3479 77.0872 43.8662" stroke="#31AD6C" stroke-width="3" stroke-linecap="round" stroke-linejoin="round"></path><path d="M67 40.1628C69.7341 40.1628 71.9505 37.9464 71.9505 35.2123C71.9505 32.4782 69.7341 30.2617 67 30.2617C64.2659 30.2617 62.0494 32.4782 62.0494 35.2123C62.0494 37.9464 64.2659 40.1628 67 40.1628Z" fill="white" stroke="#31AD6C" stroke-width="3" stroke-linecap="round" stroke-linejoin="round"></path><path d="M73.2532 17.9033C71.5224 19.2619 69.3635 20.0622 66.9999 20.0622C64.6363 20.0622 62.4774 19.2619 60.7466 17.9033" stroke="#31AD6C" stroke-width="3" stroke-linecap="round" stroke-linejoin="round"></path><path d="M62.738 63.6504C62.7566 72.8257 67 75.0776 67 75.0776C67 75.0776 71.2247 72.8257 71.2619 63.6504" stroke="#31AD6C" stroke-width="3" stroke-linecap="round" stroke-linejoin="round"></path><path d="M67.0186 60.877V66.1067" stroke="#31AD6C" stroke-width="3" stroke-linecap="round" stroke-linejoin="round"></path></g><defs><clipPath id="clip0_609_5134"><rect width="134" height="134" fill="white"></rect></clipPath></defs></svg>