<svg xmlns="http://www.w3.org/2000/svg" width="109" height="114" viewBox="0 0 109 114" fill="none"><path d="M76.8548 12.1852C54.3642 14.8136 40.4056 2 40.4056 2C40.4056 2 26.4469 14.8136 3.95632 12.1852C3.95632 12.1852 1.26141 37.0476 10.8198 59.3506C20.8335 59.3506 40.4056 59.3506 40.4056 59.3506C40.4056 59.3506 62.2534 59.3506 69.9912 59.3506C80.4599 34.3166 76.8548 12.1852 76.8548 12.1852Z" fill="#60F47B"></path><path d="M69.5656 58.8955C79.9016 37.7816 76.8551 12.1852 76.8551 12.1852C54.3645 14.8136 40.4059 2 40.4059 2C40.4059 2 26.4472 14.8136 3.95662 12.1852C3.95662 12.1852 0.910149 37.7816 11.2461 58.8955" stroke="#31AD6C" stroke-width="3" stroke-linecap="round" stroke-linejoin="round"></path><path d="M28.1162 39.6773L40.7808 50.2475L59.0673 29.3099" stroke="#31AD6C" stroke-width="3" stroke-linecap="round" stroke-linejoin="round"></path><path d="M49.2642 81.9105L39.1835 81.165L16.9893 68.4923C19.4289 63.0369 24.681 65.2394 24.681 65.2394L37.4554 70.0848C43.2666 69.6782 48.9592 68.1365 54.7704 68.0009C60.5816 67.8654 68.4766 65.5274 78.7605 73.2869L107.037 94.4308" stroke="#31AD6C" stroke-width="3" stroke-linecap="round" stroke-linejoin="round"></path><path d="M13.1261 68.6279L4.57026 63.2742C0.300826 66.2052 2.63885 70.949 2.63885 70.949L32.7113 90.5003C34.8121 91.8726 37.3026 92.5334 39.827 92.3978L66.6804 91.5338C71.5936 91.3813 76.3883 92.8722 80.2341 95.7354L99.345 112" stroke="#31AD6C" stroke-width="3" stroke-linecap="round" stroke-linejoin="round"></path></svg>